<?xml version="1.0" encoding="UTF-8" standalone="no"?>
<svg
   version="1.1"
   id="Layer_1"
   x="0px"
   y="0px"
   width="1307.8879"
   viewBox="-74 -91 1298.888 1703.6197"
   enable-background="new 0 0 2500 3538"
   xml:space="preserve"
   sodipodi:docname="logo.svg"
   height="1715.4241"
   inkscape:version="1.2.2 (b0a84865, 2022-12-01)"
   xmlns:inkscape="http://www.inkscape.org/namespaces/inkscape"
   xmlns:sodipodi="http://sodipodi.sourceforge.net/DTD/sodipodi-0.dtd"
   xmlns="http://www.w3.org/2000/svg"
   xmlns:svg="http://www.w3.org/2000/svg"><defs
   id="defs57" /><sodipodi:namedview
   id="namedview55"
   pagecolor="#ffffff"
   bordercolor="#000000"
   borderopacity="0.25"
   inkscape:showpageshadow="2"
   inkscape:pageopacity="0.0"
   inkscape:pagecheckerboard="0"
   inkscape:deskcolor="#d1d1d1"
   showgrid="false"
   inkscape:zoom="0.29027699"
   inkscape:cx="-654.54723"
   inkscape:cy="732.0594"
   inkscape:window-width="3008"
   inkscape:window-height="1639"
   inkscape:window-x="0"
   inkscape:window-y="230"
   inkscape:window-maximized="1"
   inkscape:current-layer="Layer_1" />

<path
   fill="#14130f"
   opacity="1"
   stroke="none"
   d="m 288.58979,1348.557 c -47.6499,-28.2419 -94.63616,-56.1677 -141.67016,-84.0127 -39.57611,-23.4294 -79.228085,-46.7307 -118.788635,-70.1862 -4.85589,-2.8792 -9.5636,-6.0999 -13.97015,-9.6248 -7.0498697,-5.6392 -11.0283197,-13.0925 -12.3224497,-22.1392 -1.37462994,-9.6086 -2.43023994,-19.1064 -0.59717,-28.8217 0.8545,-4.5293 0.56433,-9.3001 0.56495,-13.9612 0.0231,-172.99593 0.0584,-345.99183 -0.0629,-518.98773 -0.009,-12.2989 -1.42303994,-24.5914 -1.72973994,-36.8983 -0.14007,-5.621 0.84302,-11.2678 1.28558994,-16.9055 1.1582,-14.7528 9.6599697,-24.4326 21.9138097,-31.362 36.8393,-20.8319 73.75123,-41.5351 110.592045,-62.3643 45.83471,-25.9145 91.63482,-51.8902 137.41741,-77.8965 2.78955,-1.5849 5.29438,-3.6709 9.73133,-6.7879 -4.88483,-2.2212 -7.93152,-3.8574 -11.14893,-5.0219 -9.18982,-3.3266 -16.47217,-8.8417 -20.42389,-17.9478 -2.3164,-5.3374 -6.18927,-8.3044 -11.54938,-10.1593 -14.23046,-4.9246 -24.95782,-13.447 -30.1043,-28.3893 -1.40552,-4.0808 -5.34082,-7.4432 -8.54798,-10.7104 -3.7207,-3.7902 -7.94525,-7.0824 -11.90271,-10.6444 -6.41156,-5.7709 -10.47516,-12.93 -12.06647,-21.3874 -1.14752,-6.0987 -3.62579,-11.2009 -8.41644,-15.4173 -9.09552,-8.0053 -12.81567,-18.5243 -12.39178,-30.422 0.16571,-4.6514 -0.94214,-8.4229 -3.96216,-11.9014 -8.29089,-9.5497 -11.80591,-20.4976 -10.52234,-33.2789 0.39679,-3.9513 -0.77679,-8.7193 -2.84338,-12.1393 -7.09864,-11.7477 -9.18439,-23.4364 -2.27698,-35.9232 2.55084,-4.61119 2.80011,-9.41359 1.30194,-14.50669 -1.02649,-3.4895 -1.79114,-7.1484 -1.99902,-10.770203 -0.87268,-15.203 6.96594,-27.8335 21.87536,-30.2084 14.76221,-2.3514 27.8526,-6.7052 40.12995,-15.2622 7.15484,-4.9868 16.3432,-5.483 25.12457,-5.1497 7.54883,0.2866 14.28589,-1.2179 20.71442,-5.6818 7.0249,-4.8778 15.44122,-5.6091 23.91424,-5.8506 4.14197,-0.1179 8.8056,-0.7261 12.2591,-2.7634 11.43731,-6.7477 23.54498,-7.038 35.8349,-4.5066 7.46667,1.5378 14.01009,1.7411 21.13079,-2.0121 9.7213,-5.1239 20.3759,-4.5832 29.794,0.8146 8.0355,4.6051 15.8311,5.9005 24.8148,4.3042 8.3903,-1.491 16.6151,0.1156 24.0804,4.5733 6.5037,3.884 13.5603,5.5174 21.0732,5.0004 13.2045,-0.9083 24.1542,3.7061 33.142,13.2545 3.8032,4.0407 8.1938,6.8671 13.9649,6.7007 7.7942,-0.2246 14.0741,3.2609 20.1241,7.6802 25.3051,18.4853 41.6301,43.678103 53.9246,71.894593 2.2604,5.1878 4.262,10.488 6.459,15.7044 0.2202,0.5232 0.9702,0.8234 1.8175,1.5019 3.776,-1.1225 3.8454,-4.9273 4.9064,-7.8088 7.3174,-19.8748 17.2452,-38.35339 30.7292,-54.649893 6.9714,-8.4257 15.0541,-15.9951 23.0999,-23.4495 7.2268,-6.6954 15.6486,-10.8025 26.0154,-11.2705 4.1245,-0.1863 9.0837,-2.9417 11.9487,-6.0882 9.2632,-10.1737 20.2471,-14.6654 33.882,-13.5183 6.3844,0.5372 12.62,-0.3958 18.2279,-4.0231 8.5343,-5.5203 18.1034,-7.0017 27.8606,-5.4413 8.2959,1.3268 15.8069,0.048 23.3077,-3.3081 3.63,-1.6241 7.4846,-3.1871 11.3759,-3.6746 4.8542,-0.6084 10.5208,-1.5826 14.6525,0.2585 9.8927,4.4078 19.3188,4.6634 29.8708,2.8093 11.1429,-1.9577 22.5318,-1.0968 32.7127,5.7781 2.7172,1.8348 6.9352,2.0387 10.4498,1.988 9.6226,-0.1382 18.2883,2.3221 26.6627,7.0809 4.159,2.3633 9.2489,4.3782 13.9033,4.3481 16.6168,-0.1077 31.6317,3.3048 44.3544,14.8407 2.4211,2.1953 6.6643,2.622 10.1754,3.3122 4.229,0.8317 8.6614,0.6873 12.8535,1.6376 18.1987,4.1256 27.7599,18.246 23.5539,36.489103 -2.059,8.9304 -2.1427,16.7331 2.0788,24.99859 4.84757,9.4915 2.6501,19.0487 -2.7207,27.6041 -3.7416,5.9603 -5.4426,11.8437 -4.4806,18.8464 1.5054,10.9573 -2.6244,20.3638 -9.4818,28.5648 -3.8611,4.6173 -5.44,9.3149 -5.1023,15.4894 0.6185,11.3081 -4.8477,20.3679 -12.3408,28.5434 -3.0315,3.3073 -6.3289,7.3874 -7.1028,11.5611 -2.5458,13.7301 -10.3186,23.786 -20.8334,31.8889 -7.0756,5.4524 -12.448,11.5165 -15.6201,20.0912 -4.0855,11.0437 -13.3806,17.402 -23.979,21.2235 -7.6864,2.7716 -13.1737,6.8051 -16.5924,14.4729 -3.4249,7.682 -10.4595,11.829 -18.1558,14.7719 -3.2893,1.2579 -6.4944,2.7357 -11.0527,4.6721 2.9972,2.4501 4.5379,4.109 6.4134,5.1842 41.9218,24.0316 83.8937,47.9757 125.8134,72.011 4.6122,2.6445 9.3152,5.3215 13.3727,8.7065 11.90657,9.9334 12.00497,23.6927 -0.371,32.9844 -10.099,7.5819 -21.0026,14.1414 -31.8199,20.7084 -40.7413,24.7324 -81.5917,49.2851 -122.4062,73.8969 -2.8541,1.7209 -5.7671,3.3439 -8.6194,5.0677 -8.9987,5.4385 -18.3039,5.6791 -27.7519,1.4465 -3.6369,-1.6293 -7.151,-3.5817 -10.5739,-5.6326 -69.1898,-41.4586 -138.54,-82.6546 -207.3932,-124.6655 -15.687,-9.5715 -28.5638,-10.5123 -45.0272,-0.7078 -66.1367,39.3862 -133.0555,77.4601 -199.7367,115.93 -38.6807,22.3159 -77.46115,44.4591 -116.19065,66.6907 -2.60034,1.4925 -5.14929,3.0745 -7.72357,4.6124 -9.40082,5.6163 -13.80188,13.6139 -13.63232,24.8409 0.38257,25.3269 0.10217,50.6636 0.1015,75.9964 -0.003,96.6643 -10e-4,193.3287 3e-4,289.99303 6e-5,3.6665 0.12171,7.3364 0.009,10.9993 -0.36291,11.7661 4.47052,19.9944 14.89057,26.1084 56.05285,32.8877 111.88498,66.1521 167.76038,99.3418 53.0113,31.4885 106.1816,62.7177 158.8308,94.8015 13.2443,8.071 24.2351,7.4333 37.0735,-0.1961 66.753,-39.6692 133.7576,-78.916 200.7204,-118.2314 40.8093,-23.9602 81.6518,-47.8643 122.5943,-71.5955 8.9101,-5.1645 13.7073,-12.3435 13.9199,-22.5964 0.069,-3.3315 0.3047,-6.6834 0.055,-9.9949 -3.9179,-51.92783 -0.8758,-103.93563 -1.8608,-155.89543 -0.08,-4.2485 -0.4171,-8.4923 -0.7141,-14.2884 -3.8617,1.6006 -6.6378,2.3663 -9.0139,3.7965 -19.7023,11.8594 -39.2503,23.9766 -59.0203,35.7206 -7.9767,4.7385 -11.5398,11.029 -11.3671,20.4707 0.4146,22.6583 -0.2578,45.338 0.2382,67.99303 0.348,15.8913 -6.7473,26.4686 -20.2445,33.8776 -52.5791,28.8613 -105.0906,57.8464 -157.6018,86.8313 -25.0896,13.8486 -50.1035,27.8345 -75.1891,41.6904 -13.9676,7.7151 -28.0825,7.6543 -41.9021,-0.2021 -38.5322,-21.9051 -76.9215,-44.0611 -115.4587,-65.9571 -34.7683,-19.7544 -69.664,-39.2844 -104.48362,-58.9485 -3.47711,-1.9636 -6.92157,-4.0205 -10.19806,-6.2973 -8.7854,-6.1057 -13.2312,-14.1175 -13.20581,-25.3074 0.22125,-97.33043 0.19715,-194.66193 0.0386,-291.99253 -0.02,-12.2597 4.95483,-21.0993 15.19244,-27.3255 26.48177,-16.1057 53.01457,-32.1278 79.44327,-48.3203 47.1724,-28.9014 94.248,-57.9609 141.466,-86.7874 5.633,-3.4388 11.6367,-6.8591 17.9343,-8.4918 11.1154,-2.8816 21.6768,-0.3205 31.4611,5.9862 21.2877,13.7215 42.7545,27.1652 64.1347,40.7433 50.0742,31.8013 100.2129,63.5022 150.1574,95.5061 11.8426,7.5886 22.44,5.6081 33.542,-1.3283 25.719,-16.0691 51.5672,-31.9339 77.4779,-47.6927 59.2284,-36.0223 118.54174,-71.9048 177.77144,-107.925 6.4205,-3.9046 12.96,-6.7333 20.6784,-6.1275 10.4672,0.8212 17.3179,7.1087 18.5103,17.533 0.415,3.6277 0.3432,7.3215 0.3435,10.9851 0.014,198.9952 0.013,397.9906 0.01,596.98583 0,2.6661 0.019,5.337 -0.122,7.9976 -0.6949,13.1348 -5.8527,24.0088 -17.2035,31.0586 -17.8317,11.0747 -35.8457,21.8613 -53.9079,32.5583 -39.2855,23.2662 -78.69464,46.3238 -117.97314,69.6019 -79.9928,47.4069 -159.9414,94.8884 -239.8902,142.3696 -33.5282,19.9116 -67.0104,39.9006 -100.5124,59.8562 -0.8589,0.5117 -1.7273,1.0122 -2.5539,1.5732 -21.1707,14.3718 -41.6856,13.2725 -63.4661,-0.038 -56.5916,-34.5845 -113.7437,-68.2529 -170.7089,-102.2246 -24.0563,-14.3462 -48.20527,-28.5371 -72.95497,-43.1497 M 184.85096,142.12287 c -6.30682,-0.2561 -12.61364,-0.512 -19.97033,-0.5908 -0.32483,0.5985 -0.6496,1.197 -0.51361,3.0568 5.21624,6.0318 10.34533,12.1418 15.67309,18.0735 5.37866,5.9883 13.99628,8.9394 17.02472,17.2686 -7.3313,6.0668 -15.13586,1.7933 -23.10577,2.1099 3.27148,9.0037 9.94714,14.5719 15.8454,20.7537 5.78497,6.0628 13.38653,10.4491 18.83068,19.3277 -7.2677,0.7926 -12.95642,1.413 -20.40545,2.2254 12.68353,13.8283 26.77258,23.5372 40.92151,33.1786 -0.24781,0.6954 -0.49555,1.3908 -0.74335,2.0863 -6.15296,0.9799 -12.30597,1.9599 -20.62677,3.2852 6.32489,4.7215 10.55243,8.5099 15.35046,11.3265 9.76117,5.7297 19.85248,10.8951 29.75684,16.3847 2.37256,1.3151 4.54584,2.9898 6.81079,4.4991 -0.17047,0.7396 -0.34094,1.4792 -0.51147,2.2188 -5.6258,1.2399 -11.25159,2.4799 -17.83314,3.9304 7.81995,7.1208 16.73023,9.7966 25.33716,12.9026 8.98194,3.2416 18.12592,6.0343 29.26355,9.7034 -5.4989,4.0242 -9.30755,6.8114 -14.53033,10.6335 5.91833,1.8299 10.70459,3.9703 15.69946,4.7184 10.85871,1.6264 21.83569,2.4473 32.73916,3.8007 3.7853,0.4697 7.4962,1.5389 13.1514,2.7401 -4.6149,5.129 -7.9587,8.8456 -11.9441,13.2749 3.9003,0.3289 6.8183,0.9312 9.689,0.7565 13.6239,-0.8285 27.3386,-1.1251 40.8263,-3.0066 20.5866,-2.872 40.3465,-8.8507 58.271,-19.8417 17.9499,-11.0062 30.9067,-26.0812 37.9864,-46.1235 1.7883,-5.0624 1.2444,-8.746 -2.8901,-12.3655 -13.0297,-11.4067 -25.3479,-23.6825 -38.8633,-34.4667 -37.1093,-29.6103 -77.7811,-53.8241 -119.19092,-76.8312 -6.69964,-3.7224 -13.50818,-7.2533 -20.13427,-11.1004 -1.6106,-0.9353 -2.69733,-2.7728 -4.02497,-4.1956 3.47547,-0.8482 6.07538,-0.5669 8.43787,0.336 67.29239,25.715 130.81899,58.3183 187.78059,102.8934 1.8373,1.4377 3.7606,2.7825 5.4798,4.3503 2.8085,2.5612 5.6763,2.989 9.0872,1.1509 17.1884,-9.2624 29.814,-22.2193 34.4463,-41.8263 3.5664,-15.0958 1.6027,-29.8689 -2.9315,-44.3456 -8.8335,-28.2041 -24.5565,-52.34299 -44.6145,-73.79699 -1.4618,-1.563703 -3.4635,-2.622903 -5.2281,-3.927003 -2.3123,5.265203 -4.3513,9.907903 -6.8759,15.656403 -13.1891,-13.254403 -23.1027,-27.525703 -38.3305,-38.559203 -1.2424,7.7997 1.018,15.4824 -5.5224,18.2549 -11.6928,-9.1519 -22.6299,-17.7122 -34.3841,-26.6284 -0.1921,0.7315 -0.3842,1.463 -0.5248,3.8078 0.9695,5.927 0.1376,11.1203 -6.338,14.8916 -2.7646,-2.2226 -5.404,-4.6605 -8.3468,-6.6495 -7.9288,-5.3591 -15.8562,-10.7465 -24.0703,-15.6426 -2.6156,-1.5591 -6.1295,-1.6106 -8.7984,-2.6898 0,0 -0.5575,-0.5035 -0.5575,-0.5035 0,0 0.3917,0.7017 0.7187,2.0654 1.4517,2.2252 3.1288,4.338 4.3058,6.7001 2.1575,4.3294 1.7647,8.1853 -3.1337,11.4893 -15.3354,-9.8569 -31.74966,-16.5716 -50.36801,-19.3221 2.18347,7.5156 13.44483,9.6951 9.85212,20.4425 -16.10151,-3.8004 -31.28577,-10.3008 -49.57148,-10.6666 2.83447,3.4089 4.72186,4.9399 5.60645,6.9189 1.26929,2.8395 3.20715,6.5031 2.3479,8.9229 -1.50525,4.2387 -5.57239,1.6471 -8.66242,1.0704 -10.75897,-2.0076 -21.46734,-4.3887 -32.29864,-5.8694 -6.72272,-0.9188 -13.66181,-0.6438 -20.67847,2.8378 3.65375,4.5207 6.83429,8.456 11.4549,14.1731 -19.18744,0.5242 -36.18048,0.9884 -54.46521,1.4878 3.62451,5.430403 6.5141,9.379103 9.00152,13.566803 4.91785,8.2789 9.97809,16.54429 10.7525,27.86049 -0.0145,0.4399 -0.029,0.8798 -1.45996,1.8169 m 615.659,214.6459 c -3.86,-2.8357 -8.9678,-4.6734 -8.9376,-11.4891 18.9459,-5.9757 40.2793,-0.8333 58.4687,-11.4859 -4.6162,-3.3182 -8.4217,-6.0535 -13.8849,-9.9805 10.9842,-3.5687 19.8663,-6.1543 28.523,-9.3503 8.7981,-3.248 18.0931,-5.7476 25.9237,-13.2697 -6.3605,-2.6198 -13.6957,0.051 -18.259,-6.5608 17.0875,-10.1537 36.2098,-16.5281 50.962,-31.9727 -7.6917,-1.1121 -13.6302,-1.9706 -21.8022,-3.1518 15.2868,-12.16 30.419,-20.5933 41.9874,-35.4181 -4.5589,-0.2216 -7.4534,-0.2275 -10.3146,-0.5396 -2.8174,-0.3075 -5.6008,-0.9255 -10.9645,-1.8491 7.9501,-7.4013 14.221,-13.0935 20.3235,-18.9612 6.0584,-5.8251 12.1818,-11.6589 16.1319,-20.7839 -8.8805,0.4662 -16.5671,3.9223 -24.5297,-2.7631 4.0676,-3.8485 7.3743,-7.3826 11.0917,-10.4131 8.836,-7.2032 16.9936,-14.9321 22.2844,-26.1552 -0.6334,-0.3566 -1.267,-0.7132 -3.4964,-0.9661 -6.1047,0.147 -12.343,2.7742 -18.868,-0.6574 0.6405,-8.1998 4.0902,-15.0111 7.6232,-21.68329 3.4493,-6.5143 7.4552,-12.7338 11.9686,-20.351403 -18.6016,-0.7033 -35.3971,0.3618 -53.4424,-2.0505 4.5631,-5.32 7.8837,-9.1915 12.2785,-14.3154 -8.4046,-1.8838 -15.2286,-3.026 -22.0651,-1.9553 -11.1365,1.7441 -22.1523,4.2473 -33.2697,6.1327 -2.3604,0.4002 -4.9376,-0.4771 -7.4149,-0.7657 0.458,-2.7675 0.3502,-5.8094 1.5233,-8.2304 1.3387,-2.7628 3.818,-4.9729 6.6459,-8.4657 -18.1169,0.5902 -33.5054,7.1914 -50.062,10.8725 -2.5917,-10.8025 7.919,-13.1175 10.7391,-20.6014 -19.0119,2.7889 -35.5761,9.9425 -50.9371,19.2191 -5.2975,-3.6219 -4.9936,-7.5399 -2.8232,-11.843 1.3077,-2.5931 2.5493,-5.2195 4.236,-7.5692 0,0 0.1642,-0.6903 0.1642,-0.6903 0,0 -0.3918,0.6642 -1.8862,0.4604 -15.4589,4.869 -27.3185,15.7038 -39.5344,24.9997 -7.9813,-4.4705 -7.8445,-10.2727 -4.7261,-17.325 -0.9253,-3.4863 -0.9694,-3.4886 -5.793,0.4851 -5.2796,4.0514 -10.7767,7.8541 -15.7774,12.2247 -4.8809,4.2659 -9.2547,9.1121 -13.8128,13.6651 -7.4745,-4.9158 -5.1847,-12.2357 -5.7146,-19.7184 -16.2632,10.8234 -25.6772,26.511503 -39.7871,38.859903 -2.4347,-6.1075 -4.243,-10.6436 -6.4897,-16.279103 -2.9189,2.8031 -5.3826,4.913103 -7.5497,7.293203 -11.4916,12.6215 -21.3457,26.42869 -29.4566,41.45069 -8.4498,15.6503 -14.6171,32.0269 -16.8762,49.8518 -3.2748,25.8399 7.8009,54.6458 40.6471,67.8206 2.3449,-1.7254 4.9905,-3.6834 7.6477,-5.6255 12.1011,-8.8451 23.9597,-18.0468 36.3507,-26.4651 52.9351,-35.9639 110.4591,-62.7578 170.3366,-82.9132 -0.042,0.5568 -0.084,1.1136 -1.4224,2.1752 -24.828,14.1539 -49.8951,27.9071 -74.4281,42.555 -37.1908,22.2057 -73.041,46.3787 -104.659,76.2636 -17.3678,16.4157 -17.6979,18.964 -4.9626,39.206 3.3393,5.3074 7.3899,10.2792 11.7183,14.8302 10.9888,11.5543 24.5964,19.2016 39.3997,24.724 28.5185,10.6389 58.1182,13.6757 88.8447,12.4109 0.4335,-0.3116 0.8669,-0.6234 1.3005,-0.9351 -0.6423,-0.4466 -1.2846,-0.8934 -3.1732,-1.9498 m -180.6495,443.4586 c 2.6878,5.7288 5.2138,11.5401 8.0886,17.1735 32.8596,64.3907 84.4098,104.2705 155.5378,118.4019 2.2782,0.4527 4.6042,0.9978 6.9001,0.9639 6.2133,-0.091 9.0542,-2.873 9.5321,-9.0999 0.1522,-1.9823 0.1319,-4.0194 -0.1394,-5.986 -2.2447,-16.2733 5.0047,-27.6075 18.4456,-35.7688 34.1734,-20.7501 68.355,-41.4867 102.5144,-62.2596 8.6156,-5.2392 17.0946,-8.2173 27.2676,-3.2099 6.5194,3.209 10.1505,1.0288 11.5946,-6.1867 1.8902,-9.4444 3.4376,-19.0414 4.0529,-28.6419 2.3563,-36.7633 -6.5091,-71.3732 -21.0854,-104.7833 -0.5322,-1.22 -1.0513,-2.4618 -1.7391,-3.5949 -3.6431,-6.0025 -7.0243,-7.1344 -13.3247,-4.3781 -1.8225,0.7971 -3.5485,1.8422 -5.248,2.8885 -27.8047,17.1165 -55.8323,33.8865 -83.3058,51.5197 -16.2096,10.4038 -31.1165,10.5761 -47.3914,0.056 -48.9659,-31.6523 -98.3067,-62.7249 -147.4952,-94.0333 -15.4779,-9.8516 -19.71,-8.6699 -26.6547,8.3182 -21.5184,52.638 -21.2048,105.0704 2.45,158.6211 m 85.0011,253.06743 c 9.3872,-5.0554 18.8344,-10.0029 28.1472,-15.1919 12.5151,-6.9736 14.1179,-12.5332 7.1127,-25.1755 -9.2615,-16.71413 -20.8868,-31.62093 -34.2895,-45.27533 -38.9614,-39.6919 -116.1245,-64.6706 -179.7656,-49.6344 -55.9482,13.2189 -99.191,42.5593 -127.7791,92.77303 -9.6658,16.9778 -8.3693,21.2776 8.438,30.8156 45.4972,25.8191 90.9295,51.7525 136.3894,77.6375 2.6053,1.4834 5.2145,2.9609 7.8472,4.3948 8.8739,4.833 17.7921,4.9865 26.729,0.1709 2.6394,-1.4222 5.259,-2.8806 7.8806,-4.3355 39.3307,-21.8286 78.6603,-43.6594 119.2901,-66.1792 m 205.1883,65.2256 c -39.7624,23.0874 -79.5693,46.0994 -119.2027,69.4055 -3.1675,1.8628 -6.3573,5.3628 -7.4699,8.7757 -7.9178,24.2878 -12.3385,49.164 -9.1377,74.7905 1.7064,13.6611 5.8489,26.7246 13.4375,38.3806 6.5751,10.0989 14.7135,12.6995 25.8521,8.2061 4.91,-1.9808 9.5273,-4.7635 14.1109,-7.4649 67.4622,-39.7578 134.9063,-79.5464 202.31514,-119.3945 4.8646,-2.8758 9.4419,-6.242 14.1187,-9.4302 6.0379,-4.1167 9.471,-9.8347 11.6034,-16.8611 8.6616,-28.5415 10.8624,-57.542 6.6084,-86.988 -1.5688,-10.8584 -4.4279,-21.5286 -6.055,-32.3809 -2.3769,-15.8545 -8.6205,-30.0556 -17.6216,-43.0606 -8.5556,-12.36193 -20.4311,-20.52363 -35.4425,-21.94983 -10.12214,-0.9617 -20.60524,-0.2355 -30.70274,1.2547 -9.9246,1.4647 -13.8923,7.4144 -13.8193,17.7872 0.1503,21.31913 0.2453,42.64483 0.8611,63.95313 0.5135,17.7642 -6.5165,30.8641 -22.0965,39.4515 -8.7547,4.8249 -17.4062,9.8371 -27.3593,15.5251 m -744.16215,-99.1431 c -1.56507,-8.1279 -8.40937,-9.9524 -14.77613,-11.528 -22.6477,-5.6043 -43.66888,-1.3334 -62.612905,12.1015 -4.22217,2.9942 -7.85089,7.2539 -10.7569,11.5974 -10.03637,15.0013 -14.97735,31.7427 -16.16656,49.7452 -1.15247,17.4467 2.3844,34.4724 3.74866,51.6977 2.27435,28.7153 15.61364,49.5657 40.839655,63.1856 13.18511,7.1189 26.33905,14.3225 39.22631,21.9614 48.41663,28.6987 96.68885,57.6406 145.10041,86.3479 5.69348,3.376 11.69995,6.4919 17.93957,8.6189 10.40717,3.5469 17.62904,0.8752 22.60774,-8.8491 3.7555,-7.3348 6.7212,-15.2781 8.7017,-23.2813 7.3718,-29.79 2.0628,-58.8784 -6.2193,-87.6106 -2.2109,-7.6704 -7.82268,-13.021 -14.63823,-17.0608 -6.8758,-4.0752 -13.77906,-8.1074 -20.58118,-12.3027 -28.06122,-17.3067 -56.10535,-34.575 -85.77002,-49.1621 -10.30139,-5.0652 -19.88001,-12.2505 -28.51788,-19.9024 -14.16632,-12.549 -21.0069,-29.0083 -20.38153,-48.0742 0.28265,-8.6174 1.55493,-17.2026 2.25659,-27.4844 M 462.74496,643.15677 c -36.7151,22.3588 -73.3466,44.8569 -110.2,66.9854 -10.0759,6.0502 -15.198,13.7488 -15.1538,25.917 0.2353,64.6529 -0.029,129.3074 -0.075,193.9613 -0.01,12.9778 3.8578,16.224 16.4411,14.0366 18.2292,-3.1687 35.598,-9.1094 51.5433,-18.3597 73.1762,-42.4512 115.2924,-105.2202 121.9085,-190.1855 2.7851,-35.7681 -5.5684,-69.5313 -23.5208,-100.7203 -5.7347,-9.963 -9.6523,-10.9354 -19.3933,-5.1533 -6.8753,4.081 -13.5584,8.4855 -21.5498,13.5185 m 21.1539,686.99473 c -30.9659,6.8743 -60.9543,16.0711 -87.8858,36.2583 3.4665,2.4087 5.7456,4.2109 8.2216,5.6807 49.7985,29.5642 99.6831,58.9843 149.3658,88.7417 7.1861,4.3044 13.1363,4.4421 20.3018,0.166 52.0176,-31.0415 104.1885,-61.8262 156.2781,-92.7471 2.0851,-1.2375 3.8411,-3.0298 6.902,-5.4885 -7.9324,-4.8037 -14.4701,-9.3535 -21.5051,-12.9224 -32.2954,-16.3818 -67.1829,-23.0012 -102.8204,-26.4436 -42.6977,-4.124 -85.0976,-1.6855 -128.858,6.7549 m 34.0271,-903.81583 c 9.4915,-5.5542 18.9132,-11.2319 28.4924,-16.6304 11.0097,-6.2049 22.2327,-6.2314 33.4369,-0.3885 2.3611,1.2314 4.6598,2.5885 6.945,3.9581 38.5902,23.1264 77.1687,46.2722 115.7661,69.3863 3.7145,2.2244 7.4353,4.4804 11.3301,6.3537 10.0342,4.8262 14.2523,3.0803 18.6501,-7.1814 8.7903,-20.5112 5.3776,-39.7992 -6.0783,-58.092 -8.5962,-13.727 -20.1382,-24.7876 -32.9749,-34.5254 -16.0488,-12.1747 -33.6488,-21.7384 -52.3953,-28.8368 -69.6799,-26.3842 -136.0005,-19.3518 -198.4012,21.4949 -16.0027,10.4751 -29.6381,23.7567 -40.7246,39.4491 -13.1956,18.6775 -13.0841,37.8376 -1.4909,57.1678 5.0004,8.3375 9.4916,9.4795 18.3639,5.0955 1.7895,-0.8842 3.4988,-1.9337 5.2292,-2.9346 30.866,-17.8529 61.7296,-35.7101 93.8515,-54.3163 M 87.722385,599.95497 c 3.4751,11.5669 7.74439,14.394 18.847345,10.7666 7.86035,-2.568 15.73664,-5.7616 22.77173,-10.0456 16.47473,-10.0317 32.82062,-20.3608 48.55719,-31.5037 55.37787,-39.2126 105.12323,-84.837 151.25731,-134.4811 10.4721,-11.2691 19.588,-23.5485 26.6107,-37.2796 4.3819,-8.5677 1.0988,-15.0106 -8.3974,-16.705 -6.2316,-1.112 -11.8177,0.7835 -17.136,3.9073 -10.04604,5.9009 -20.09438,11.7997 -30.20998,17.58 -47.39209,27.0807 -94.76904,54.1882 -142.24859,81.1147 -8.96448,5.0838 -18.52295,9.1138 -27.54193,14.1091 -20.19489,11.1852 -33.938655,27.7137 -39.497985,50.3388 -4.07727,16.5935 -5.58081,33.4628 -3.01239,52.1985 M 1042.731,947.34247 c 5.3206,13.4455 11.7956,26.249 23.2422,35.5547 3.7156,3.0207 8.4569,5.5578 13.0955,6.4872 7.4453,1.4918 11.1304,-2.342 11.1212,-9.9946 -0.01,-5.9927 -0.3028,-11.9852 -0.3046,-17.9778 -0.023,-80.2753 -0.374,-160.5533 0.2393,-240.824 0.1478,-19.3364 -17.2131,-44.7414 -36.0861,-52.3425 -11.6225,-4.6809 -22.0413,-2.4896 -29.3568,7.6475 -4.5841,6.3523 -8.7756,13.762 -10.4234,21.2926 -3.1131,14.2284 -5.2564,28.8307 -6.064,43.3742 -3.9386,70.9167 8.1759,139.2925 34.5367,206.7827 M 99.004535,703.44967 c -3.74329,-7.7638 -6.92841,-15.8681 -11.39618,-23.1899 -3.99683,-6.5501 -10.40009,-10.0628 -18.607,-9.4899 -18.51519,1.2923 -29.73834,13.5288 -29.55682,32.0065 0.23901,24.3169 0.28815,48.6363 0.29376,72.9547 0.0159,68.9626 -0.0422,137.9254 -0.0107,206.8881 10e-4,2.3834 0.64838,4.7667 1.14691,8.1993 11.13184,-7.5148 18.42481,-16.5145 23.29285,-27.2513 5.08014,-11.2048 9.73456,-22.6441 13.84534,-34.2394 17.98108,-50.7195 25.732355,-103.2349 26.867725,-156.8622 0.47999,-22.6718 0.55872,-45.3119 -5.875905,-69.0159 M 803.64664,462.49537 c 17.6149,16.7118 35.1577,33.5002 52.8787,50.0987 7.3616,6.8952 11.401,7.0934 20.4636,1.5566 21.0039,-12.8332 41.9583,-25.7478 62.8899,-38.6985 2.0743,-1.2835 3.854,-3.0435 6.0084,-4.7736 -1.2136,-1.079 -1.6493,-1.6193 -2.2099,-1.943 -46.664,-26.9379 -93.2294,-54.0489 -140.0761,-80.6649 -14.052,-7.9835 -29.1343,-5.0201 -43.6627,-0.676 -5.8148,1.7387 -7.4956,6.1147 -5.2042,11.9859 1.7948,4.5984 4.0694,9.2586 7.1537,13.0617 13.3885,16.51 27.1521,32.7158 41.7586,50.0531 z"
   id="path4" />
<path
   fill="#6fb537"
   opacity="1"
   stroke="none"
   d="m 733.65616,67.429477 c -2.6075,6.4618 -2.7443,12.264 5.237,16.7345 12.2159,-9.2959 24.0755,-20.1307 40.233,-24.9554 0.6986,0.044 0.6082,-0.076 0.608,-0.076 -1.2713,2.6113 -2.5129,5.2377 -3.8206,7.8308 -2.1704,4.3031 -2.4743,8.2211 2.8232,11.843 15.361,-9.2766 31.9252,-16.4302 50.9371,-19.2191 -2.8201,7.4839 -13.3308,9.7989 -10.7391,20.6014 16.5566,-3.6811 31.9451,-10.2823 50.062,-10.8725 -2.8279,3.4928 -5.3072,5.7029 -6.6459,8.4657 -1.1731,2.421 -1.0653,5.4629 -1.5233,8.2304 2.4773,0.2886 5.0545,1.1659 7.4149,0.7657 11.1174,-1.8854 22.1332,-4.3886 33.2697,-6.1327 6.8365,-1.0707 13.6605,0.072 22.0651,1.9553 -4.3948,5.1239 -7.7154,8.9954 -12.2785,14.3154 18.0453,2.4123 34.8408,1.3472 53.4424,2.0505 -4.5134,7.617603 -8.5193,13.837103 -11.9686,20.351403 -3.533,6.67219 -6.9827,13.48349 -7.6232,21.68329 6.525,3.4316 12.7633,0.8044 20.0929,1.0789 1.5161,0.7312 1.8074,1.0408 2.0985,1.3505 -5.1178,10.4172 -13.2754,18.1461 -22.1114,25.3493 -3.7174,3.0305 -7.0241,6.5646 -11.0917,10.4131 7.9626,6.6854 15.6492,3.2293 24.5297,2.7631 -3.9501,9.125 -10.0735,14.9588 -16.1319,20.7839 -6.1025,5.8677 -12.3734,11.5599 -20.3235,18.9612 5.3637,0.9236 8.1471,1.5416 10.9645,1.8491 2.8612,0.3121 5.7557,0.318 10.3146,0.5396 -11.5684,14.8248 -26.7006,23.2581 -41.9874,35.4181 8.172,1.1812 14.1105,2.0397 21.8022,3.1518 -14.7522,15.4446 -33.8745,21.819 -50.962,31.9727 4.5633,6.6118 11.8985,3.941 18.259,6.5608 -7.8306,7.5221 -17.1256,10.0217 -25.9237,13.2697 -8.6567,3.196 -17.5388,5.7816 -28.523,9.3503 5.4632,3.927 9.2687,6.6623 13.8849,9.9805 -18.1894,10.6526 -39.5228,5.5102 -58.4687,11.4859 -0.03,6.8157 5.0776,8.6534 9.6018,12.2871 0.6643,0.7978 0.6938,1.7867 0.6938,1.7867 -30.2118,1.565 -59.8115,-1.4718 -88.33,-12.1107 -14.8033,-5.5224 -28.4109,-13.1697 -39.3997,-24.724 -4.3284,-4.551 -8.379,-9.5228 -11.7183,-14.8302 -12.7353,-20.242 -12.4052,-22.7903 4.9626,-39.206 31.618,-29.8849 67.4682,-54.0579 104.659,-76.2636 24.533,-14.6479 49.6001,-28.4011 75.7429,-42.7942 3.8058,-1.607 6.2969,-2.975 8.7879,-4.3429 -0.3887,-0.7297 -0.7772,-1.4594 -1.1659,-2.1892 -2.4736,0.9745 -4.9474,1.9489 -7.421,2.9234 -59.9709,21.8281 -117.4949,48.622 -170.43,84.5859 -12.391,8.4183 -24.2496,17.62 -36.3507,26.4651 -2.6572,1.9421 -5.3028,3.9001 -7.6477,5.6255 -32.8462,-13.1748 -43.9219,-41.9807 -40.6471,-67.8206 2.2591,-17.8249 8.4264,-34.2015 16.8762,-49.8518 8.1109,-15.022 17.965,-28.82919 29.4566,-41.45069 2.1671,-2.3801 4.6308,-4.490103 7.5497,-7.293203 2.2467,5.635503 4.055,10.171603 6.4897,16.279103 14.1099,-12.3484 23.5239,-28.036503 39.7871,-38.859903 0.5299,7.4827 -1.7599,14.8026 5.7146,19.7184 4.5581,-4.553 8.9319,-9.3992 13.8128,-13.6651 5.0007,-4.3706 10.4978,-8.1733 17.4039,-12.4315 2.303,-0.034 2.9793,0.1391 3.6556,0.3122 z"
   id="path6" />
<path
   fill="#6fb537"
   opacity="1"
   stroke="none"
   d="m 351.57246,59.469977 c 3.1029,0.7413 6.6168,0.7928 9.2324,2.3519 8.2141,4.8961 16.1415,10.2835 24.0703,15.6426 2.9428,1.989 5.5822,4.4269 8.3468,6.6495 6.4756,-3.7713 7.3075,-8.9646 6.6626,-16.1563 0.5555,-1.5722 0.7863,-1.8798 1.0172,-2.1873 10.9372,8.5604 21.8743,17.1207 33.5671,26.2726 6.5404,-2.7725 4.28,-10.4552 5.5224,-18.2549 15.2278,11.0335 25.1414,25.3048 38.3305,38.559203 2.5246,-5.7485 4.5636,-10.3912 6.8759,-15.656403 1.7646,1.3041 3.7663,2.3633 5.2281,3.927003 20.058,21.454 35.781,45.59289 44.6145,73.79699 4.5342,14.4767 6.4979,29.2498 2.9315,44.3456 -4.6323,19.607 -17.2579,32.5639 -34.4463,41.8263 -3.4109,1.8381 -6.2787,1.4103 -9.0872,-1.1509 -1.7192,-1.5678 -3.6425,-2.9126 -5.4798,-4.3503 -56.9616,-44.5751 -120.4882,-77.1784 -187.78059,-102.8934 -2.36249,-0.9029 -4.9624,-1.1842 -8.43787,-0.336 1.32764,1.4228 2.41437,3.2603 4.02497,4.1956 6.62609,3.8471 13.43463,7.378 20.13427,11.1004 41.40982,23.0071 82.08162,47.2209 119.19092,76.8312 13.5154,10.7842 25.8336,23.06 38.8633,34.4667 4.1345,3.6195 4.6784,7.3031 2.8901,12.3655 -7.0797,20.0423 -20.0365,35.1173 -37.9864,46.1235 -17.9245,10.991 -37.6844,16.9697 -58.271,19.8417 -13.4877,1.8815 -27.2024,2.1781 -40.8263,3.0066 -2.8707,0.1747 -5.7887,-0.4276 -9.689,-0.7565 3.9854,-4.4293 7.3292,-8.1459 11.9441,-13.2749 -5.6552,-1.2012 -9.3661,-2.2704 -13.1514,-2.7401 -10.90347,-1.3534 -21.88045,-2.1743 -32.73916,-3.8007 -4.99487,-0.7481 -9.78113,-2.8885 -15.69946,-4.7184 5.22278,-3.8221 9.03143,-6.6093 14.53033,-10.6335 -11.13763,-3.6691 -20.28161,-6.4618 -29.26355,-9.7034 -8.60693,-3.106 -17.51721,-5.7818 -25.33716,-12.9026 6.58155,-1.4505 12.20734,-2.6905 17.83314,-3.9304 0.17053,-0.7396 0.341,-1.4792 0.51147,-2.2188 -2.26495,-1.5093 -4.43823,-3.184 -6.81079,-4.4991 -9.90436,-5.4896 -19.99567,-10.655 -29.75684,-16.3847 -4.79803,-2.8166 -9.02557,-6.605 -15.35046,-11.3265 8.3208,-1.3253 14.47381,-2.3053 20.62677,-3.2852 0.2478,-0.6955 0.49554,-1.3909 0.74335,-2.0863 -14.14893,-9.6414 -28.23798,-19.3503 -40.92151,-33.1786 7.44903,-0.8124 13.13775,-1.4328 20.40545,-2.2254 -5.44415,-8.8786 -13.04571,-13.2649 -18.83068,-19.3277 -5.89826,-6.1818 -12.57392,-11.75 -15.8454,-20.7537 7.96991,-0.3166 15.77447,3.9569 23.10577,-2.1099 -3.02844,-8.3292 -11.64606,-11.2803 -17.02472,-17.2686 -5.32776,-5.9317 -10.45685,-12.0417 -15.56909,-19.036 0.56134,-1.3932 1.01318,-1.8296 1.45947,-2.2716 6.30683,0.2561 12.61365,0.512 20.0304,0.2904 0.82306,-1.2038 0.53619,-1.9297 0.24927,-2.6556 -0.67365,-9.9998 -5.73389,-18.26519 -10.65174,-26.54409 -2.48742,-4.1877 -5.37701,-8.1364 -9.00152,-13.566803 18.28473,-0.4994 35.27777,-0.9636 54.46521,-1.4878 -4.62061,-5.7171 -7.80115,-9.6524 -11.4549,-14.1731 7.01666,-3.4816 13.95575,-3.7566 20.67847,-2.8378 10.8313,1.4807 21.53967,3.8618 32.29864,5.8694 3.09003,0.5767 7.15717,3.1683 8.66242,-1.0704 0.85925,-2.4198 -1.07861,-6.0834 -2.3479,-8.9229 -0.88459,-1.979 -2.77198,-3.51 -5.60645,-6.9189 18.28571,0.3658 33.46997,6.8662 49.57148,10.6666 3.59271,-10.7474 -7.66865,-12.9269 -9.85212,-20.4425 18.61835,2.7505 35.03261,9.4652 50.36801,19.3221 4.8984,-3.304 5.2912,-7.1599 3.1337,-11.4893 -1.177,-2.3621 -2.8541,-4.4749 -4.5352,-7.3448 -0.2293,-0.6446 -0.3658,-0.5793 -0.3658,-0.5793 m -62.47205,87.796993 c -6.25933,-2.3041 -12.51867,-4.6082 -18.77807,-6.9124 -0.30084,0.7635 -0.60175,1.5269 -0.90265,2.2902 6.12402,2.9006 12.24811,5.8011 20.00964,9.2469 0.85193,-0.2668 1.70386,-0.5338 2.55579,-0.8007 -0.61011,-1.0004 -1.22015,-2.0009 -2.88471,-3.824 z"
   id="path8" />
<path
   fill="#c51e56"
   opacity="1"
   stroke="none"
   d="m 619.57616,799.51797 c -23.3705,-52.8413 -23.6841,-105.2737 -2.1657,-157.9117 6.9447,-16.9881 11.1768,-18.1698 26.6547,-8.3182 49.1885,31.3084 98.5293,62.381 147.4952,94.0333 16.2749,10.5205 31.1818,10.3482 47.3914,-0.056 27.4735,-17.6332 55.5011,-34.4032 83.3058,-51.5197 1.6995,-1.0463 3.4255,-2.0914 5.248,-2.8885 6.3004,-2.7563 9.6816,-1.6244 13.3247,4.3781 0.6878,1.1331 1.2069,2.3749 1.7391,3.5949 14.5763,33.4101 23.4417,68.02 21.0854,104.7833 -0.6153,9.6005 -2.1627,19.1975 -4.0529,28.6419 -1.4441,7.2155 -5.0752,9.3957 -11.5946,6.1867 -10.173,-5.0074 -18.652,-2.0293 -27.2676,3.2099 -34.1594,20.7729 -68.341,41.5095 -102.5144,62.2596 -13.4409,8.1613 -20.6903,19.4955 -18.4456,35.7688 0.2713,1.9666 0.2916,4.0037 0.1394,5.986 -0.4779,6.2269 -3.3188,9.0084 -9.5321,9.0999 -2.2959,0.034 -4.6219,-0.5112 -6.9001,-0.9639 -71.128,-14.1314 -122.6782,-54.0112 -155.5378,-118.4019 -2.8748,-5.6334 -5.4008,-11.4447 -8.3729,-17.8829 z"
   id="path10" />
<path
   fill="#c51e56"
   opacity="1"
   stroke="none"
   d="m 704.21146,1053.6395 c -39.9797,22.1751 -79.3093,44.0059 -118.64,65.8345 -2.6216,1.4549 -5.2412,2.9133 -7.8806,4.3355 -8.9369,4.8156 -17.8551,4.6621 -26.729,-0.1709 -2.6327,-1.4339 -5.2419,-2.9114 -7.8472,-4.3948 -45.4599,-25.885 -90.8922,-51.8184 -136.3894,-77.6375 -16.8073,-9.538 -18.1038,-13.8378 -8.438,-30.8156 28.5881,-50.21373 71.8309,-79.55413 127.7791,-92.77303 63.6411,-15.0362 140.8042,9.9425 179.7656,49.6344 13.4027,13.6544 25.028,28.5612 34.2895,45.27533 7.0052,12.6423 5.4024,18.2019 -7.1127,25.1755 -9.3128,5.189 -18.76,10.1365 -28.7973,15.5366 z"
   id="path12" />
<path
   fill="#c51e56"
   opacity="1"
   stroke="none"
   d="m 910.67746,1118.1403 c 9.3255,-5.3079 17.977,-10.3201 26.7317,-15.145 15.58,-8.5874 22.61,-21.6873 22.0965,-39.4515 -0.6158,-21.3083 -0.7108,-42.634 -0.8611,-63.95313 -0.073,-10.3728 3.8947,-16.3225 13.8193,-17.7872 10.0975,-1.4902 20.5806,-2.2164 30.70274,-1.2547 15.0114,1.4262 26.8869,9.5879 35.4425,21.94983 9.0011,13.005 15.2447,27.2061 17.6216,43.0606 1.6271,10.8523 4.4862,21.5225 6.055,32.3809 4.254,29.446 2.0532,58.4465 -6.6084,86.988 -2.1324,7.0264 -5.5655,12.7444 -11.6034,16.8611 -4.6768,3.1882 -9.2541,6.5544 -14.1187,9.4302 -67.40884,39.8481 -134.85294,79.6367 -202.31514,119.3945 -4.5836,2.7014 -9.2009,5.4841 -14.1109,7.4649 -11.1386,4.4934 -19.277,1.8928 -25.8521,-8.2061 -7.5886,-11.656 -11.7311,-24.7195 -13.4375,-38.3806 -3.2008,-25.6265 1.2199,-50.5027 9.1377,-74.7905 1.1126,-3.4129 4.3024,-6.9129 7.4699,-8.7757 39.6334,-23.3061 79.4403,-46.3181 119.8303,-69.7856 z"
   id="path14" />
<path
   fill="#c51e56"
   opacity="1"
   stroke="none"
   d="m 165.94856,1020.2182 c -0.76251,9.4409 -2.03479,18.0261 -2.31744,26.6435 -0.62537,19.0659 6.21521,35.5252 20.38153,48.0742 8.63787,7.6519 18.21649,14.8372 28.51788,19.9024 29.66467,14.5871 57.7088,31.8554 85.77002,49.1621 6.80212,4.1953 13.70538,8.2275 20.58118,12.3027 6.81555,4.0398 12.42733,9.3904 14.63823,17.0608 8.2821,28.7322 13.5911,57.8206 6.2193,87.6106 -1.9805,8.0032 -4.9462,15.9465 -8.7017,23.2813 -4.9787,9.7243 -12.20057,12.396 -22.60774,8.8491 -6.23962,-2.127 -12.24609,-5.2429 -17.93957,-8.6189 -48.41156,-28.7073 -96.68378,-57.6492 -145.10041,-86.3479 -12.88726,-7.6389 -26.0412,-14.8425 -39.22631,-21.9614 -25.226015,-13.6199 -38.565305,-34.4703 -40.839655,-63.1856 -1.36426,-17.2253 -4.90113,-34.251 -3.74866,-51.6977 1.18921,-18.0025 6.13019,-34.7439 16.16656,-49.7452 2.90601,-4.3435 6.53473,-8.6032 10.7569,-11.5974 18.944025,-13.4349 39.965205,-17.7058 62.612905,-12.1015 6.36676,1.5756 13.21106,3.4001 14.83698,12.3689 z"
   id="path16" />
<path
   fill="#c51e56"
   opacity="1"
   stroke="none"
   d="m 463.35626,642.77037 c 7.3801,-4.6466 14.0632,-9.0511 20.9385,-13.1321 9.741,-5.7821 13.6586,-4.8097 19.3933,5.1533 17.9524,31.189 26.3059,64.9522 23.5208,100.7203 -6.6161,84.9653 -48.7323,147.7343 -121.9085,190.1855 -15.9453,9.2503 -33.3141,15.191 -51.5433,18.3597 -12.5833,2.1874 -16.4504,-1.0588 -16.4411,-14.0366 0.047,-64.6539 0.3105,-129.3084 0.075,-193.9613 -0.044,-12.1682 5.0779,-19.8668 15.1538,-25.917 36.8534,-22.1285 73.4849,-44.6266 110.8113,-67.3718 z"
   id="path18" />
<path
   fill="#c51e55"
   opacity="1"
   stroke="none"
   d="m 484.72686,1329.954 c 42.9324,-8.2429 85.3323,-10.6814 128.03,-6.5574 35.6375,3.4424 70.525,10.0618 102.8204,26.4436 7.035,3.5689 13.5727,8.1187 21.5051,12.9224 -3.0609,2.4587 -4.8169,4.251 -6.902,5.4885 -52.0896,30.9209 -104.2605,61.7056 -156.2781,92.7471 -7.1655,4.2761 -13.1157,4.1384 -20.3018,-0.166 -49.6827,-29.7574 -99.5673,-59.1775 -149.3658,-88.7417 -2.476,-1.4698 -4.7551,-3.272 -8.2216,-5.6807 26.9315,-20.1872 56.9199,-29.384 88.7138,-36.4558 z"
   id="path20" />
<path
   fill="#ca1d57"
   opacity="1"
   stroke="none"
   d="m 517.29706,426.71057 c -31.493,18.2313 -62.3566,36.0885 -93.2226,53.9414 -1.7304,1.0009 -3.4397,2.0504 -5.2292,2.9346 -8.8723,4.384 -13.3635,3.242 -18.3639,-5.0955 -11.5932,-19.3302 -11.7047,-38.4903 1.4909,-57.1678 11.0865,-15.6924 24.7219,-28.974 40.7246,-39.4491 62.4007,-40.8467 128.7213,-47.8791 198.4012,-21.4949 18.7465,7.0984 36.3465,16.6621 52.3953,28.8368 12.8367,9.7378 24.3787,20.7984 32.9749,34.5254 11.4559,18.2928 14.8686,37.5808 6.0783,58.092 -4.3978,10.2617 -8.6159,12.0076 -18.6501,7.1814 -3.8948,-1.8733 -7.6156,-4.1293 -11.3301,-6.3537 -38.5974,-23.1141 -77.1759,-46.2599 -115.7661,-69.3863 -2.2852,-1.3696 -4.5839,-2.7267 -6.945,-3.9581 -11.2042,-5.8429 -22.4272,-5.8164 -33.4369,0.3885 -9.5792,5.3985 -19.0009,11.0762 -29.1213,17.0053 z"
   id="path22" />
<path
   fill="#c41e55"
   opacity="1"
   stroke="none"
   d="m 87.609575,599.11677 c -2.45581,-17.8975 -0.95227,-34.7668 3.125,-51.3603 5.55933,-22.6251 19.303095,-39.1536 39.497985,-50.3388 9.01898,-4.9953 18.57745,-9.0253 27.54193,-14.1091 47.47955,-26.9265 94.8565,-54.034 142.24859,-81.1147 10.1156,-5.7803 20.16394,-11.6791 30.20998,-17.58 5.3183,-3.1238 10.9044,-5.0193 17.136,-3.9073 9.4962,1.6944 12.7793,8.1373 8.3974,16.705 -7.0227,13.7311 -16.1386,26.0105 -26.6107,37.2796 -46.13408,49.6441 -95.87944,95.2685 -151.25731,134.4811 -15.73657,11.1429 -32.08246,21.472 -48.55719,31.5037 -7.03509,4.284 -14.91138,7.4776 -22.77173,10.0456 -11.102955,3.6274 -15.372245,0.8003 -18.959955,-11.6048 z"
   id="path24" />
<path
   fill="#c41e55"
   opacity="1"
   stroke="none"
   d="m 1042.4443,946.62657 c -26.0743,-66.7743 -38.1888,-135.1501 -34.2502,-206.0668 0.8076,-14.5435 2.9509,-29.1458 6.064,-43.3742 1.6478,-7.5306 5.8393,-14.9403 10.4234,-21.2926 7.3155,-10.1371 17.7343,-12.3284 29.3568,-7.6475 18.873,7.6011 36.2339,33.0061 36.0861,52.3425 -0.6133,80.2707 -0.2627,160.5487 -0.2393,240.824 0,5.9926 0.2974,11.9851 0.3046,17.9778 0.01,7.6526 -3.6759,11.4864 -11.1212,9.9946 -4.6386,-0.9294 -9.3799,-3.4665 -13.0955,-6.4872 -11.4466,-9.3057 -17.9216,-22.1092 -23.5287,-36.2706 z"
   id="path26" />
<path
   fill="#c41e55"
   opacity="1"
   stroke="none"
   d="m 99.246045,704.22277 c 6.193115,22.9309 6.114385,45.571 5.634395,68.2428 -1.13537,53.6273 -8.886645,106.1427 -26.867725,156.8622 -4.11078,11.5953 -8.7652,23.0346 -13.84534,34.2394 -4.86804,10.7368 -12.16101,19.7365 -23.29285,27.2513 -0.49853,-3.4326 -1.14581,-5.8159 -1.14691,-8.1993 -0.0316,-68.9627 0.0266,-137.9255 0.0107,-206.8881 -0.006,-24.3184 -0.0548,-48.6378 -0.29376,-72.9547 -0.18152,-18.4777 11.04163,-30.7142 29.55682,-32.0065 8.20691,-0.5729 14.61017,2.9398 18.607,9.4899 4.46777,7.3218 7.65289,15.4261 11.63769,23.963 z"
   id="path28" />
<path
   fill="#c41e55"
   opacity="1"
   stroke="none"
   d="m 803.15696,461.98497 c -14.1168,-16.8269 -27.8804,-33.0327 -41.2689,-49.5427 -3.0843,-3.8031 -5.3589,-8.4633 -7.1537,-13.0617 -2.2914,-5.8712 -0.6106,-10.2472 5.2042,-11.9859 14.5284,-4.3441 29.6107,-7.3075 43.6627,0.676 46.8467,26.616 93.4121,53.727 140.0761,80.6649 0.5606,0.3237 0.9963,0.864 2.2099,1.943 -2.1544,1.7301 -3.9341,3.4901 -6.0084,4.7736 -20.9316,12.9507 -41.886,25.8653 -62.8899,38.6985 -9.0626,5.5368 -13.102,5.3386 -20.4636,-1.5566 -17.721,-16.5985 -35.2638,-33.3869 -53.3684,-50.6091 z"
   id="path30" />
<path
   fill="#3c5b21"
   opacity="1"
   stroke="none"
   d="m 847.93876,146.65247 c 2.5203,-1.8109 4.9941,-2.7853 7.4677,-3.7598 0.3887,0.7298 0.7772,1.4595 1.1659,2.1892 -2.491,1.3679 -4.9821,2.7359 -8.1399,4.0906 -0.6245,-0.5701 -0.5824,-1.1269 -0.4937,-2.52 z"
   id="path32" />
<path
   fill="#3c5b21"
   opacity="1"
   stroke="none"
   d="m 733.91166,67.134177 c -0.9318,0.1222 -1.6081,-0.051 -3.3204,-0.3772 2.6064,-3.4066 2.6505,-3.4043 3.3204,0.3772 z"
   id="path34" />
<path
   fill="#3c5b21"
   opacity="1"
   stroke="none"
   d="m 802.12536,359.50357 c -0.2574,-0.1501 -0.2869,-1.139 -0.328,-1.632 0.6012,-0.046 1.2435,0.4004 1.8858,0.847 -0.4336,0.3117 -0.867,0.6235 -1.5578,0.785 z"
   id="path36" />
<path
   fill="#3c5b21"
   opacity="1"
   stroke="none"
   d="m 967.42736,143.02757 c -0.3777,0.093 -0.669,-0.2163 -1.387,-0.9994 0.2064,-0.1167 0.84,0.2399 1.387,0.9994 z"
   id="path38" />
<path
   fill="#3c5b21"
   opacity="1"
   stroke="none"
   d="m 165.40559,141.44347 c 0.0786,0.3533 -0.37323,0.7897 -1.16504,1.5522 -0.01,-0.2666 0.31525,-0.8651 1.16504,-1.5522 z"
   id="path40" />
<path
   fill="#3c5b21"
   opacity="1"
   stroke="none"
   d="m 186.26057,139.64777 c 0.23651,0.068 0.52338,0.7936 0.40863,1.7486 -0.38727,-0.2106 -0.3728,-0.6505 -0.40863,-1.7486 z"
   id="path42" />
<path
   fill="#6fb537"
   opacity="1"
   stroke="none"
   d="m 399.85886,67.150977 c -0.1583,-0.2734 0.034,-1.0049 0.6344,-1.5586 0.1776,0.4855 -0.053,0.7931 -0.6344,1.5586 z"
   id="path44" />
<path
   fill="#6fb537"
   opacity="1"
   stroke="none"
   d="m 779.87336,59.310577 c 0.049,0.058 0.4404,-0.6067 0.4404,-0.6067 0,0 -0.1642,0.6903 -0.3718,0.5594 -0.2076,-0.1307 -0.1172,-0.01 -0.069,0.047 z"
   id="path46" />
<path
   fill="#6fb537"
   opacity="1"
   stroke="none"
   d="m 351.77476,59.367577 c 0.066,-0.037 -0.3258,-0.739 -0.3258,-0.739 0,0 0.5575,0.5035 0.3404,0.6724 -0.2169,0.169 -0.08,0.1037 -0.015,0.067 z"
   id="path48" />
<path
   fill="#3c5b21"
   opacity="1"
   stroke="none"
   d="m 287.79182,151.34657 c -6.12402,-2.9007 -12.24811,-5.8012 -18.37213,-8.7018 0.3009,-0.7633 0.60181,-1.5267 0.90265,-2.2902 6.2594,2.3042 12.51874,4.6083 18.84753,7.8212 -0.41308,1.6628 -0.89557,2.4167 -1.37805,3.1708 z"
   id="path50" />
<path
   fill="#14130f"
   opacity="1"
   stroke="none"
   d="m 288.61055,151.61917 c -0.33625,-1.0267 0.14624,-1.7806 1.08654,-3.032 1.06788,0.5029 1.67792,1.5034 2.28803,2.5038 -0.85193,0.2669 -1.70386,0.5339 -3.37457,0.5282 z"
   id="path52" />
</svg>
